<?xml version="1.0" encoding="UTF-8" standalone="no"?>
<!-- Created with Inkscape (http://www.inkscape.org/) -->

<svg
   width="79.445mm"
   height="17.309999mm"
   viewBox="0 0 79.445 17.309999"
   version="1.1"
   id="svg5"
   inkscape:version="1.1 (c68e22c387, 2021-05-23)"
   sodipodi:docname="semipaste.svg"
   xmlns:inkscape="http://www.inkscape.org/namespaces/inkscape"
   xmlns:sodipodi="http://sodipodi.sourceforge.net/DTD/sodipodi-0.dtd"
   xmlns="http://www.w3.org/2000/svg"
   xmlns:svg="http://www.w3.org/2000/svg">
  <sodipodi:namedview
     id="namedview7"
     pagecolor="#505050"
     bordercolor="#eeeeee"
     borderopacity="1"
     inkscape:pageshadow="0"
     inkscape:pageopacity="0"
     inkscape:pagecheckerboard="0"
     inkscape:document-units="mm"
     showgrid="false"
     inkscape:zoom="2.9647587"
     inkscape:cx="140.48361"
     inkscape:cy="13.660471"
     inkscape:window-width="1920"
     inkscape:window-height="1015"
     inkscape:window-x="0"
     inkscape:window-y="0"
     inkscape:window-maximized="1"
     inkscape:current-layer="layer1"
     width="79.445mm" />
  <defs
     id="defs2" />
  <g
     inkscape:label="Layer 1"
     inkscape:groupmode="layer"
     id="layer1">
    <path
       d="m 26.23042,12.726488 c -0.64206,0 -1.18885,-0.10583 -1.64042,-0.3175 -0.45156,-0.21167 -0.797265,-0.50448 -1.037163,-0.87842 -0.239898,-0.37393 -0.359833,-0.79727 -0.359833,-1.27 h 1.037166 c 0,0.23284 0.06,0.46567 0.17992,0.6985 0.127,0.23284 0.33514,0.42686 0.62441,0.58209 0.29634,0.15523 0.69498,0.23283 1.19592,0.23283 0.46567,0 0.84667,-0.067 1.143,-0.20108 0.29633,-0.14111 0.51514,-0.32102 0.65617,-0.53975 0.14102,-0.22577 0.21166,-0.46919 0.21166,-0.73025 0,-0.3175004 -0.13758,-0.5785704 -0.41275,-0.7831704 -0.27516,-0.21167 -0.67733,-0.34218 -1.2065,-0.39158 l -0.85725,-0.0741 c -0.68439,-0.0564 -1.23118,-0.2681 -1.64041,-0.6349997 -0.409234,-0.36689 -0.613836,-0.85018 -0.613836,-1.44991 0,-0.47273 0.112897,-0.88548 0.338666,-1.23825 0.23283,-0.35277 0.55385,-0.62794 0.96308,-0.8255 0.40923,-0.2046 0.88548,-0.30692 1.42875,-0.30692 0.53623,0 1.00886,0.0988 1.41817,0.29633 0.40931,0.19757 0.72681,0.47625 0.9525,0.83609 0.23283,0.35277 0.34925,0.7761 0.34925,1.27 h -1.03717 c 0,-0.24694 -0.0601,-0.47977 -0.17991,-0.6985 -0.11298,-0.21873 -0.2929,-0.39865 -0.53975,-0.53975 -0.24686,-0.1411 -0.56798,-0.21167 -0.96309,-0.21167 -0.381,0 -0.6985,0.067 -0.9525,0.20108 -0.24693,0.13407 -0.43391,0.31044 -0.56091,0.52917 -0.11994,0.21167 -0.17992,0.44098 -0.17992,0.68792 0,0.28223 0.10935,0.53268 0.32808,0.75141 0.21873,0.21874 0.54327,0.34574 0.97367,0.381 l 0.85725,0.0741 c 0.52917,0.0423 0.98425,0.15523 1.36525,0.3386597 0.38814,0.1764 0.68448,0.41627 0.889,0.71967 0.21167,0.29633 0.3175,0.65265 0.3175,1.0689204 0,0.47273 -0.127,0.89252 -0.381,1.25941 -0.254,0.3669 -0.61039,0.65265 -1.06892,0.85725 -0.45852,0.20461 -0.99139,0.30692 -1.59808,0.30692 z m 7.04268,0 c -0.49398,0 -0.92075,-0.0847 -1.28058,-0.254 -0.35984,-0.16933 -0.65273,-0.39158 -0.87842,-0.66675 -0.22569,-0.28223 -0.39502,-0.59619 -0.508,-0.94192 -0.10583,-0.34573 -0.15875,-0.6985 -0.15875,-1.0583304 v -0.1905 c 0,-0.3669 0.0529,-0.72318 0.15875,-1.06892 0.11298,-0.3457297 0.28231,-0.6561597 0.508,-0.9313297 0.22569,-0.28223 0.51144,-0.50448 0.85725,-0.66675 0.35269,-0.16933 0.76544,-0.254 1.23825,-0.254 0.61383,0 1.11839,0.13407 1.51342,0.40217 0.40216,0.26106 0.6985,0.59973 0.889,1.016 0.19764,0.4162697 0.29633,0.8607697 0.29633,1.3334997 v 0.45508 h -5.0165 v -0.762 h 4.27567 l -0.23284,0.41275 c 0,-0.40217 -0.0635,-0.7479 -0.1905,-1.03717 -0.127,-0.2963297 -0.3175,-0.5256397 -0.5715,-0.6879097 -0.254,-0.16227 -0.57494,-0.24342 -0.96308,-0.24342 -0.40217,0 -0.73739,0.0917 -1.00542,0.27517 -0.26114,0.18343 -0.45852,0.43391 -0.59266,0.7514097 -0.127,0.3175 -0.1905,0.6844 -0.1905,1.10067 0,0.4021704 0.0635,0.7655204 0.1905,1.0900804 0.13414,0.3175 0.33866,0.5715 0.61383,0.762 0.27517,0.18344 0.62442,0.27517 1.04775,0.27517 0.4445,0 0.80433,-0.0988 1.0795,-0.29633 0.28231,-0.19757 0.45164,-0.42686 0.508,-0.68792 h 0.9525 c -0.0775,0.38806 -0.23283,0.72319 -0.46567,1.00542 -0.23283,0.28223 -0.52572,0.49741 -0.87841,0.64558 -0.35269,0.14817 -0.75142,0.22225 -1.19592,0.22225 z m 4.077756,-0.1905 V 6.8844879 h 0.80433 v 2.4235797 h -0.127 c 0,-0.55033 0.0706,-1.0159997 0.21167,-1.3969997 0.14816,-0.38806 0.36697,-0.68439 0.65616,-0.889 0.28946,-0.2046 0.65617,-0.30691 1.10067,-0.30691 h 0.0423 c 0.4445,0 0.81148,0.10231 1.10067,0.30691 0.29633,0.20461 0.51514,0.50094 0.65616,0.889 0.14129,0.381 0.21167,0.8466697 0.21167,1.3969997 h -0.29633 c 0,-0.55033 0.0741,-1.0159997 0.22225,-1.3969997 0.14816,-0.38806 0.36697,-0.68439 0.65616,-0.889 0.29634,-0.2046 0.66675,-0.30691 1.11125,-0.30691 h 0.0423 c 0.4445,0 0.81492,0.10231 1.11125,0.30691 0.29634,0.20461 0.51515,0.50094 0.65617,0.889 0.14817,0.381 0.22225,0.8466697 0.22225,1.3969997 v 3.2279204 h -1.016 V 9.0858176 c 0,-0.4586 -0.11271,-0.8113897 -0.33867,-1.0583297 -0.22568,-0.254 -0.53975,-0.381 -0.94191,-0.381 -0.41619,0 -0.75142,0.13407 -1.00542,0.40217 -0.254,0.26106 -0.381,0.6279297 -0.381,1.1006597 v 3.3866704 h -1.016 V 9.0858176 c 0,-0.4586 -0.11271,-0.8113897 -0.33867,-1.0583297 -0.22568,-0.254 -0.53975,-0.381 -0.94191,-0.381 -0.41619,0 -0.75142,0.13407 -1.00542,0.40217 -0.254,0.26106 -0.381,0.6279297 -0.381,1.1006597 v 3.3866704 z m 10.51745,0 V 6.8844879 h 1.016 v 5.6515001 z m -0.86783,-4.8471701 v -0.80433 h 1.88383 v 0.80433 z m 1.15358,-1.7145 c -0.22569,0 -0.39502,-0.06 -0.508,-0.17991 -0.10583,-0.11994 -0.15875,-0.27165 -0.15875,-0.45509 0,-0.18343 0.0529,-0.33514 0.15875,-0.45508 0.11298,-0.11993 0.28231,-0.17992 0.508,-0.17992 0.22595,0 0.39158,0.06 0.49742,0.17992 0.11297,0.11994 0.16933,0.27165 0.16933,0.45508 0,0.18344 -0.0564,0.33515 -0.16933,0.45509 -0.10584,0.11993 -0.27147,0.17991 -0.49742,0.17991 z m 3.66845,3.8734997 v -0.91016 h 1.72508 c 0.36698,0 0.67019,-0.0706 0.91017,-0.21167 0.23997,-0.14817 0.41989,-0.3457297 0.53975,-0.5926697 0.127,-0.24693 0.1905,-0.5221 0.1905,-0.8255 0,-0.31043 -0.0635,-0.58914 -0.1905,-0.83608 -0.11986,-0.24693 -0.29978,-0.44098 -0.53975,-0.58208 -0.23998,-0.1411 -0.54319,-0.21167 -0.91017,-0.21167 h -1.72508 v -0.91017 h 1.53458 c 0.635,0 1.16417,0.10232 1.5875,0.30692 0.43048,0.19757 0.75486,0.47977 0.97367,0.84667 0.21881,0.3669 0.32808,0.80081 0.32808,1.30175 v 0.16933 c 0,0.4939 -0.10927,0.92782 -0.32808,1.3017497 -0.21881,0.3669 -0.54319,0.65265 -0.97367,0.85725 -0.42333,0.19757 -0.9525,0.29633 -1.5875,0.29633 z m -0.8255,2.6881704 V 4.7678179 h 1.03716 v 7.7681701 z m 9.97796,0 v -1.69333 h -0.16933 V 8.8847376 c 0,-0.38806 -0.10239,-0.6808497 -0.30692,-0.8784197 -0.19764,-0.19756 -0.49053,-0.29633 -0.87841,-0.29633 -0.21881,0 -0.4445,0.004 -0.67734,0.0106 -0.23283,0.007 -0.45508,0.0141 -0.66675,0.0212 -0.21166,0.007 -0.39528,0.0177 -0.55033,0.0317 v -0.889 c 0.15505,-0.0141 0.3175,-0.0247 0.48683,-0.0318 0.17622,-0.0141 0.35613,-0.0212 0.53975,-0.0212 0.18336,-0.007 0.35984,-0.0106 0.52917,-0.0106 0.57838,0 1.05119,0.0706 1.41817,0.21167 0.36671,0.13406 0.63844,0.35631 0.81491,0.66675 0.17622,0.31043 0.26459,0.73025 0.26459,1.2594097 v 3.5771704 z m -1.85208,0.14817 c -0.42333,0 -0.79031,-0.0706 -1.10067,-0.21167 -0.30347,-0.14817 -0.53975,-0.35983 -0.70908,-0.635 -0.16245,-0.27517 -0.24342,-0.60677 -0.24342,-0.99483 0,-0.40217 0.0881,-0.73732 0.26459,-1.0054204 0.18335,-0.2681 0.44794,-0.46918 0.79375,-0.60325 0.34554,-0.1411 0.762,-0.21167 1.24857,-0.21167 h 1.53484 v 0.762 h -1.57691 c -0.40931,0 -0.72337,0.0988 -0.94192,0.2963404 -0.21881,0.19756 -0.32808,0.45156 -0.32808,0.762 0,0.31043 0.10927,0.56091 0.32808,0.75141 0.21855,0.1905 0.53261,0.28575 0.94192,0.28575 0.23971,0 0.4691,-0.0423 0.68791,-0.127 0.21855,-0.0917 0.39847,-0.23989 0.53975,-0.4445 0.14817,-0.21166 0.22913,-0.50093 0.24342,-0.86783 l 0.27517,0.40217 c -0.0354,0.40216 -0.13415,0.74083 -0.29634,1.016 -0.15531,0.2681 -0.37412,0.47273 -0.65616,0.61383 -0.27517,0.1411 -0.6104,0.21167 -1.00542,0.21167 z m 6.37302,0.0212 c -0.74083,0 -1.31577,-0.15875 -1.72508,-0.47625 -0.40217,-0.3175 -0.61013,-0.75142 -0.62442,-1.30175 h 0.9525 c 0.0143,0.21873 0.12356,0.42685 0.32808,0.62441 0.21167,0.1905 0.56806,0.28575 1.06892,0.28575 0.45164,0 0.79745,-0.0882 1.03717,-0.26458 0.23997,-0.18343 0.35983,-0.40568 0.35983,-0.66675 0,-0.23283 -0.0881,-0.41275 -0.26458,-0.53975 -0.17622,-0.13406 -0.46197,-0.22225 -0.85725,-0.26458 l -0.61384,-0.0635 c -0.53604,-0.0564 -0.97366,-0.2151904 -1.31233,-0.4762604 -0.33867,-0.2681 -0.508,-0.64206 -0.508,-1.1218297 0,-0.35983 0.0918,-0.66675 0.27517,-0.92075 0.18362,-0.26106 0.43762,-0.4586 0.762,-0.59267 0.32464,-0.1411 0.6985,-0.21166 1.12183,-0.21166 0.635,0 1.15014,0.1411 1.54517,0.42333 0.39528,0.28223 0.59981,0.70202 0.61383,1.25942 h -0.9525 c -0.007,-0.22577 -0.11271,-0.41627 -0.3175,-0.5715 -0.19738,-0.16227 -0.49371,-0.24342 -0.889,-0.24342 -0.39502,0 -0.6948,0.0812 -0.89958,0.24342 -0.20453,0.16227 -0.30692,0.3669 -0.30692,0.61383 0,0.2116697 0.0706,0.3809997 0.21167,0.5079997 0.14816,0.127 0.38814,0.20815 0.71966,0.24342 l 0.61384,0.0635 c 0.60695,0.0635 1.09378,0.23283 1.4605,0.508 0.36697,0.2681004 0.55033,0.6491004 0.55033,1.1430004 0,0.35277 -0.10213,0.66675 -0.30692,0.94191 -0.19738,0.26811 -0.47254,0.47977 -0.8255,0.635 -0.35269,0.14817 -0.75829,0.22225 -1.21708,0.22225 z m 6.0235,-0.10584 c -0.42333,0 -0.79031,-0.06 -1.10066,-0.17991 -0.30348,-0.11994 -0.53975,-0.32457 -0.70909,-0.61384 -0.16245,-0.29633 -0.24341,-0.69498 -0.24341,-1.19592 V 5.1700179 h 0.97366 v 5.5668301 c 0,0.3034 0.081,0.53975 0.24342,0.70909 0.16933,0.16227 0.40561,0.24341 0.70908,0.24341 h 0.99484 v 0.91017 z m -3.02683,-4.9530001 v -0.762 h 3.89467 v 0.762 z m 7.69276,5.0800001 c -0.49398,0 -0.92075,-0.0847 -1.28058,-0.254 -0.35984,-0.16933 -0.65273,-0.39158 -0.87842,-0.66675 -0.22595,-0.28223 -0.39529,-0.59618 -0.508,-0.94191 -0.10583,-0.34573 -0.15875,-0.6985 -0.15875,-1.0583404 v -0.1905 c 0,-0.36689 0.0529,-0.72318 0.15875,-1.06891 0.11271,-0.3457297 0.28205,-0.6561697 0.508,-0.9313397 0.22569,-0.28223 0.51144,-0.50448 0.85725,-0.66675 0.35269,-0.16933 0.76544,-0.254 1.23825,-0.254 0.61383,0 1.11813,0.13407 1.51342,0.40217 0.40216,0.26107 0.6985,0.59973 0.889,1.016 0.19738,0.4162697 0.29633,0.8607697 0.29633,1.3334997 v 0.45508 h -5.0165 v -0.762 h 4.27567 l -0.23284,0.41275 c 0,-0.40217 -0.0635,-0.7479 -0.1905,-1.03717 -0.127,-0.2963297 -0.3175,-0.5256397 -0.5715,-0.6879097 -0.254,-0.16227 -0.5752,-0.24342 -0.96308,-0.24342 -0.40217,0 -0.73739,0.0917 -1.00542,0.27517 -0.26114,0.18343 -0.45878,0.43391 -0.59266,0.7514097 -0.127,0.3175 -0.1905,0.6844 -0.1905,1.10067 0,0.4021704 0.0635,0.7655204 0.1905,1.0900804 0.13388,0.3175 0.33866,0.5715 0.61383,0.762 0.27517,0.18344 0.62442,0.27517 1.04775,0.27517 0.4445,0 0.80433,-0.0988 1.0795,-0.29633 0.28205,-0.19757 0.45138,-0.42686 0.508,-0.68792 h 0.9525 c -0.0778,0.38806 -0.23283,0.72319 -0.46567,1.00542 -0.23283,0.28223 -0.52572,0.49741 -0.87841,0.64558 -0.35296,0.14817 -0.75142,0.22225 -1.19592,0.22225 z"
       fill="#ffffff"
       id="path9"
       style="stroke-width:0.264583" />
    <rect
       y="2.3213925"
       width="10.583333"
       height="13.758333"
       transform="rotate(-8.20898)"
       fill="#f3f3f3"
       id="rect11"
       x="0.044333763"
       style="stroke-width:0.264583" />
    <rect
       x="2.1826851"
       y="2.8129086"
       width="10.583333"
       height="13.758333"
       transform="rotate(-8.20898)"
       fill="#ffffff"
       id="rect13"
       style="stroke-width:0.264583" />
    <rect
       x="3.7701831"
       y="4.6649742"
       width="7.1437502"
       height="0.52916664"
       transform="rotate(-8.20898)"
       fill="#d9d9d9"
       id="rect15"
       style="stroke-width:0.264583" />
    <rect
       x="3.7701793"
       y="6.2524986"
       width="7.1437502"
       height="0.52916664"
       transform="rotate(-8.20898)"
       fill="#d9d9d9"
       id="rect17"
       style="stroke-width:0.264583" />
    <rect
       x="3.7701793"
       y="7.839993"
       width="7.1437502"
       height="0.52916664"
       transform="rotate(-8.20898)"
       fill="#d9d9d9"
       id="rect19"
       style="stroke-width:0.264583" />
    <rect
       x="3.7701793"
       y="9.4274874"
       width="7.1437502"
       height="0.52916664"
       transform="rotate(-8.20898)"
       fill="#d9d9d9"
       id="rect21"
       style="stroke-width:0.264583" />
    <rect
       x="3.7701793"
       y="11.014981"
       width="7.1437502"
       height="0.52916664"
       transform="rotate(-8.20898)"
       fill="#d9d9d9"
       id="rect23"
       style="stroke-width:0.264583" />
  </g>
</svg>
